<?xml version="1.0" encoding="UTF-8"?>
<svg version="1.1" xmlns="http://www.w3.org/2000/svg" width="512" height="512">
<path d="M0 0 C1.02335449 0.50644043 2.04670898 1.01288086 3.10107422 1.53466797 C4.24576172 2.09412109 5.39044922 2.65357422 6.56982422 3.22998047 C7.76526644 3.82867985 8.96057855 4.42763911 10.15576172 5.02685547 C11.89599609 5.88150391 11.89599609 5.88150391 13.67138672 6.75341797 C17.13127926 8.45627336 20.58139654 10.17779466 24.03076172 11.90185547 C25.08432861 12.42166992 26.13789551 12.94148437 27.22338867 13.47705078 C49.81454157 24.65431584 71.45467662 37.98822634 91.03076172 53.90185547 C91.55009277 54.31967285 92.06942383 54.73749023 92.60449219 55.16796875 C115.87763819 73.96578124 138.74512507 97.98624834 143.03076172 128.90185547 C143.31018493 134.13776619 143.29284268 139.36546691 143.27127075 144.6065979 C143.272144 146.19090289 143.27389717 147.7752076 143.27644908 149.35951078 C143.28090317 153.69235587 143.2729457 158.02510135 143.26289296 162.35793376 C143.25423272 167.03810153 143.25718044 171.71826397 143.25869751 176.3984375 C143.25974473 184.50030466 143.25348512 192.60213953 143.24222183 200.70399857 C143.22594776 212.41783275 143.22075687 224.13165136 143.21824585 235.84549563 C143.21387174 254.85175853 143.20057034 273.85800424 143.18164062 292.86425781 C143.16327447 311.32389237 143.1491445 329.78352223 143.140625 348.24316406 C143.14008901 349.39317024 143.13955301 350.54317642 143.13900077 351.72803128 C143.13484178 360.72222225 143.13092798 369.71641332 143.12709165 378.71060443 C143.10823417 422.77437056 143.0679952 466.83809363 143.03076172 510.90185547 C44.69076172 510.90185547 -53.64923828 510.90185547 -154.96923828 510.90185547 C-155.13056368 415.68402158 -155.13056368 415.68402158 -155.16455078 375.89404297 C-155.17238187 366.78694632 -155.18046369 357.67984995 -155.18896484 348.57275391 C-155.19001984 347.43138072 -155.19107483 346.29000754 -155.1921618 345.11404729 C-155.20954309 326.70488303 -155.24106956 308.29576891 -155.27784947 289.88663435 C-155.31529999 270.98371278 -155.33748283 252.0808174 -155.34559226 233.17786026 C-155.3510715 221.5205319 -155.36835624 209.86334525 -155.40090415 198.20606053 C-155.42210281 190.20436381 -155.42842623 182.20274 -155.42324379 174.20101726 C-155.42069033 169.5894312 -155.42451142 164.9780922 -155.44606018 160.36655045 C-155.46569098 156.13428257 -155.46640257 151.90242517 -155.45283386 147.67013741 C-155.45115976 146.14899308 -155.45609316 144.62782192 -155.46877101 143.10672951 C-155.57291903 129.82538383 -153.69554563 116.54825848 -147.28173828 104.71435547 C-146.76691895 103.7314856 -146.76691895 103.7314856 -146.24169922 102.72875977 C-140.1150419 91.31253359 -132.40001799 81.65662284 -123.4140625 72.39355469 C-122.08782926 71.02429394 -120.77955372 69.63769926 -119.47314453 68.24951172 C-113.39597561 61.93284846 -106.78066452 56.55172367 -99.80029297 51.28417969 C-98.60180224 50.37939909 -97.40697374 49.46974185 -96.21630859 48.5546875 C-74.05395562 31.52538933 -49.30396539 18.33803165 -24.28344727 6.04342651 C-23.00159908 5.41277028 -21.72144854 4.77865041 -20.44311523 4.14089966 C-18.65319937 3.25074224 -16.85432119 2.3786765 -15.05517578 1.50732422 C-14.02440918 1.00354248 -12.99364258 0.49976074 -11.93164062 -0.01928711 C-7.48846737 -1.63741655 -4.43625758 -1.64070766 0 0 Z M-60.78173828 155.15185547 C-75.53590284 170.1120348 -83.94099454 190.85514013 -84.21923828 211.83935547 C-83.97908364 234.02091147 -75.7161899 254.26494735 -60.46142578 270.49560547 C-43.71162307 286.66782878 -22.15611043 295.08424974 1.03076172 294.90185547 C23.22347438 293.62980643 43.63278767 284.28074848 59.07373047 268.22216797 C66.3258216 260.26196771 66.3258216 260.26196771 70.03076172 250.90185547 C69.34111328 251.09521484 68.65146484 251.28857422 67.94091797 251.48779297 C64.97528233 252.3095466 62.00344503 253.10601899 59.03076172 253.90185547 C57.99048828 254.20349609 57.99048828 254.20349609 56.92919922 254.51123047 C35.20082762 260.22466683 11.8980939 256.08469501 -7.38720703 245.10498047 C-26.94648949 233.41629077 -38.29780156 215.21547219 -44.21923828 193.58935547 C-47.9401682 175.29478339 -45.35291524 157.58017059 -39.96923828 139.90185547 C-46.27551163 139.90185547 -56.43267751 150.8759205 -60.78173828 155.15185547 Z M29.03076172 140.90185547 C27.69273907 145.02534947 26.36113871 149.15088899 25.03076172 153.27685547 C24.64919922 154.45248047 24.26763672 155.62810547 23.87451172 156.83935547 C23.51357422 157.96083984 23.15263672 159.08232422 22.78076172 160.23779297 C22.44560547 161.27468262 22.11044922 162.31157227 21.76513672 163.37988281 C20.93756878 165.78410988 20.93756878 165.78410988 21.03076172 167.90185547 C12.12076172 167.90185547 3.21076172 167.90185547 -5.96923828 167.90185547 C-2.25861475 171.612479 1.44455976 174.57816208 5.65576172 177.65185547 C6.33638672 178.15845703 7.01701172 178.66505859 7.71826172 179.18701172 C8.69666016 179.904375 8.69666016 179.904375 9.69482422 180.63623047 C10.58355225 181.28930176 10.58355225 181.28930176 11.49023438 181.95556641 C13.01346472 183.0763235 13.01346472 183.0763235 15.03076172 182.90185547 C14.77383545 183.74780273 14.77383545 183.74780273 14.51171875 184.61083984 C13.72439833 187.20724291 12.94006371 189.80453909 12.15576172 192.40185547 C11.75164062 193.73216797 11.75164062 193.73216797 11.33935547 195.08935547 C9.75877642 200.33225183 8.3120324 205.57774041 7.03076172 210.90185547 C13.39956289 206.80073351 19.36130796 202.33930793 25.23388672 197.56201172 C28.03076172 195.90185547 28.03076172 195.90185547 30.47998047 195.84326172 C33.95126441 197.28387113 36.70194709 199.42787028 39.59326172 201.77685547 C40.71952033 202.67013944 41.8458214 203.5633699 42.97216797 204.45654297 C43.98150391 205.26349609 44.99083984 206.07044922 46.03076172 206.90185547 C48.72216175 209.29025197 48.72216175 209.29025197 52.03076172 209.90185547 C51.61721581 208.3385266 51.19964683 206.7762622 50.78076172 205.21435547 C50.51392578 204.21919922 50.24708984 203.22404297 49.97216797 202.19873047 C48.67678348 197.66219724 47.14863793 193.20716116 45.60498047 188.74951172 C44.93238153 185.41397004 45.24677435 184.70151632 47.03076172 181.90185547 C48.80249023 180.37792969 48.80249023 180.37792969 50.90966797 178.95654297 C51.66570312 178.43705078 52.42173828 177.91755859 53.20068359 177.38232422 C53.99023438 176.85251953 54.77978516 176.32271484 55.59326172 175.77685547 C57.15968355 174.71560786 58.7236206 173.65068045 60.28466797 172.58154297 C60.97890869 172.11474121 61.67314941 171.64793945 62.38842773 171.16699219 C64.1714772 169.9834688 64.1714772 169.9834688 65.03076172 167.90185547 C56.12076172 167.90185547 47.21076172 167.90185547 38.03076172 167.90185547 C37.37076172 164.93185547 36.71076172 161.96185547 36.03076172 158.90185547 C35.5608895 157.28650382 35.06554412 155.67784729 34.52294922 154.08544922 C34.1265625 152.91079102 34.1265625 152.91079102 33.72216797 151.71240234 C33.45275391 150.92929688 33.18333984 150.14619141 32.90576172 149.33935547 C32.62861328 148.52144531 32.35146484 147.70353516 32.06591797 146.86083984 C31.39171035 144.87308979 30.71183968 142.88726198 30.03076172 140.90185547 C29.70076172 140.90185547 29.37076172 140.90185547 29.03076172 140.90185547 Z " fill="#000000" transform="translate(261.96923828125,1.09814453125)"/>
<path d="M0 0 C39.24183417 0 39.24183417 0 55.77734375 15.64453125 C67.18231383 27.73099339 70.30851857 41.7785114 70.2746582 57.94848633 C70.27976913 59.21799637 70.28488007 60.48750641 70.29014587 61.79548645 C70.3034513 65.25435634 70.30412393 68.71311639 70.30158257 72.17200685 C70.30050684 75.07171419 70.30541166 77.97139985 70.310188 80.87110251 C70.32125448 87.71950502 70.32173709 94.56785266 70.31567383 101.41625977 C70.30963941 108.45256411 70.32193802 115.48866821 70.3432439 122.5249384 C70.36092981 128.59151211 70.3668502 134.6580225 70.36360615 140.724621 C70.36180386 144.33662442 70.36432277 147.94848507 70.37832069 151.56046486 C70.39337278 155.59488289 70.38386821 159.62890043 70.37231445 163.66333008 C70.37995819 164.84034485 70.38760193 166.01735962 70.39547729 167.2300415 C70.29470665 183.23651448 65.46354405 196.05480276 54.41796875 207.7109375 C37.80132601 223.44171722 23.36892679 222 0 222 C0 148.74 0 75.48 0 0 Z " fill="#000000" transform="translate(422,290)"/>
<path d="M0 0 C0 73.26 0 146.52 0 222 C-39.54242424 222 -39.54242424 222 -55.3125 207.1875 C-64.31230006 197.61716047 -70.099242 184.67058685 -70.14044189 171.46824646 C-70.14615204 170.36804672 -70.15186218 169.26784698 -70.15774536 168.13430786 C-70.15886322 166.93683929 -70.15998108 165.73937073 -70.16113281 164.50561523 C-70.16609772 163.2366893 -70.17106262 161.96776337 -70.17617798 160.66038513 C-70.18926549 157.18478022 -70.19574039 153.7091946 -70.20018864 150.23356891 C-70.20312671 148.05732705 -70.207233 145.88109038 -70.21169281 143.70485115 C-70.22536133 136.88220986 -70.23502979 130.05958052 -70.2388947 123.2369265 C-70.24336682 115.38736033 -70.26087789 107.53796903 -70.2898953 99.688456 C-70.31159528 93.60498723 -70.32160348 87.52156735 -70.32293582 81.43806034 C-70.32397839 77.81257042 -70.32976766 74.18724502 -70.34775543 70.56179619 C-70.36747814 66.50780723 -70.36291425 62.45417835 -70.35644531 58.40014648 C-70.3656601 57.21684753 -70.37487488 56.03354858 -70.3843689 54.81439209 C-70.30188186 38.2265184 -65.08211562 25.46915444 -53.640625 13.4453125 C-37.91207125 -1.11988668 -21.03691285 0 0 0 Z " fill="#000000" transform="translate(90,290)"/>
</svg>
