<?xml version="1.0" encoding="UTF-8"?>
<svg version="1.1" xmlns="http://www.w3.org/2000/svg" width="512" height="512">
<path d="M0 0 C0.79660848 -0.00205263 1.59321697 -0.00410527 2.41396511 -0.0062201 C5.09381371 -0.01189227 7.77361095 -0.01043258 10.45346451 -0.00901413 C12.39002232 -0.01159763 14.32657961 -0.01461075 16.26313615 -0.01801753 C21.59320623 -0.0260924 26.92326286 -0.02787737 32.25333834 -0.028615 C37.99853788 -0.03046469 43.74373043 -0.03801156 49.48892593 -0.04475021 C62.05494815 -0.05833715 74.62096717 -0.06435871 87.18699551 -0.06876087 C95.03107076 -0.07152248 102.87514479 -0.07575966 110.71921921 -0.08026505 C132.43123052 -0.09245779 154.14324051 -0.10279273 175.85525513 -0.10614014 C177.25913152 -0.10636177 178.66300791 -0.10658355 180.06688429 -0.10680549 C181.4741428 -0.10702613 182.88140131 -0.10724661 184.28865981 -0.10746694 C187.11184422 -0.10790949 189.93502863 -0.1083566 192.75821304 -0.10880661 C193.45819785 -0.108916 194.15818265 -0.10902539 194.87937911 -0.1091381 C217.578921 -0.11276913 240.27843097 -0.12869139 262.97796063 -0.15199697 C286.97891 -0.17659367 310.97984034 -0.19030616 334.98080277 -0.19150805 C348.06352247 -0.19242537 361.14620035 -0.19819191 374.22890854 -0.21632767 C385.36781838 -0.23171432 396.50667349 -0.23685756 407.64559194 -0.22858956 C413.32968084 -0.2246781 419.01365945 -0.22563699 424.69773483 -0.23964691 C429.90146011 -0.25235572 435.10499191 -0.25121481 440.3087168 -0.2390562 C442.19095105 -0.23709398 444.07319886 -0.24020179 445.95541403 -0.24890056 C468.17872792 -0.34510216 468.17872792 -0.34510216 477.06973648 7.13142776 C481.00862296 12.40462538 483.19164041 16.81914871 483.20395756 23.47578335 C483.2084154 24.59150949 483.21287325 25.70723563 483.21746618 26.85677165 C483.21718963 28.70313361 483.21718963 28.70313361 483.2169075 30.58679581 C483.22058419 31.89045131 483.22426088 33.19410681 483.22804898 34.53726703 C483.23807363 38.16354923 483.24178652 41.78981487 483.24443829 45.41610897 C483.24833997 49.32422838 483.2579184 53.23233467 483.26665115 57.14044571 C483.28641947 66.58239732 483.29648226 76.02435001 483.30537894 85.46631715 C483.30976126 89.91180998 483.31512822 94.35730162 483.32036781 98.8027935 C483.33738049 113.57912035 483.3518749 128.35544644 483.35911655 143.13178158 C483.36102647 146.96686873 483.3629468 150.80195587 483.3649025 154.637043 C483.36538624 155.59024474 483.36586998 156.54344648 483.36636838 157.52553312 C483.37466956 172.96850666 483.4000078 188.41140276 483.43248317 203.85434248 C483.46554711 219.70629161 483.48356471 235.55820137 483.4867608 251.41018516 C483.48892651 260.31170154 483.49768419 269.21310499 483.52322197 278.11458778 C483.54491989 285.69519264 483.55298388 293.27565714 483.54325519 300.85628953 C483.53870782 304.72364508 483.54062183 308.59071099 483.56001663 312.45802689 C483.58087085 316.65260259 483.57067167 320.84653487 483.55748367 325.04114151 C483.56845292 326.26089587 483.57942217 327.48065024 483.59072381 328.73736686 C483.52708494 337.10867784 482.2531677 342.34572578 476.75723648 348.88142776 C469.60876748 354.86619251 463.33439806 356.28489182 454.13947296 356.26285553 C453.34286448 356.26490816 452.54625599 356.2669608 451.72550786 356.26907563 C449.04565925 356.2747478 446.36586201 356.27328811 443.68600845 356.27186966 C441.74945064 356.27445316 439.81289336 356.27746628 437.87633681 356.28087306 C432.54626673 356.28894793 427.2162101 356.2907329 421.88613462 356.29147053 C416.14093508 356.29332022 410.39574253 356.30086709 404.65054703 356.30760574 C392.08452481 356.32119268 379.51850579 356.32721424 366.95247746 356.3316164 C359.1084022 356.33437801 351.26432818 356.33861519 343.42025375 356.34312057 C321.70824244 356.35531331 299.99623245 356.36564826 278.28421783 356.36899567 C276.88034145 356.3692173 275.47646506 356.36943908 274.07258867 356.36966102 C272.66533016 356.36988166 271.25807166 356.37010214 269.85081315 356.37032247 C267.02762874 356.37076502 264.20444433 356.37121213 261.38125992 356.37166214 C260.68127512 356.37177153 259.98129031 356.37188092 259.26009385 356.37199363 C236.56055196 356.37562466 213.861042 356.39154692 191.16151233 356.4148525 C167.16056296 356.4394492 143.15963262 356.45316169 119.15867019 356.45436358 C106.07595049 356.4552809 92.99327261 356.46104744 79.91056442 356.4791832 C68.77165458 356.49456985 57.63279947 356.49971309 46.49388102 356.49144509 C40.80979213 356.48753363 35.12581351 356.48849252 29.44173813 356.50250244 C24.23801285 356.51521125 19.03448105 356.51407034 13.83075616 356.50191173 C11.94852191 356.49994951 10.0662741 356.50305732 8.18405893 356.51175609 C-14.03925495 356.60795769 -14.03925495 356.60795769 -22.93026352 349.13142776 C-26.86915 343.85823015 -29.05216745 339.44370682 -29.0644846 332.78707218 C-29.06894244 331.67134604 -29.07340028 330.5556199 -29.07799321 329.40608388 C-29.07780885 328.17517591 -29.07762449 326.94426794 -29.07743454 325.67605972 C-29.08111123 324.37240422 -29.08478792 323.06874872 -29.08857602 321.7255885 C-29.09860067 318.0993063 -29.10231356 314.47304066 -29.10496533 310.84674656 C-29.10886701 306.93862715 -29.11844544 303.03052086 -29.12717819 299.12240982 C-29.14694651 289.68045821 -29.1570093 280.23850552 -29.16590598 270.79653838 C-29.1702883 266.35104555 -29.17565526 261.90555391 -29.18089485 257.46006203 C-29.19790753 242.68373518 -29.21240194 227.90740909 -29.21964359 213.13107395 C-29.22155351 209.2959868 -29.22347384 205.46089966 -29.22542953 201.62581253 C-29.22591328 200.67261079 -29.22639702 199.71940905 -29.22689541 198.73732241 C-29.2351966 183.29434887 -29.26053484 167.85145277 -29.29301021 152.40851305 C-29.32607415 136.55656392 -29.34409175 120.70465416 -29.34728783 104.85267037 C-29.34945355 95.95115399 -29.35821123 87.04975054 -29.38374901 78.14826775 C-29.40544692 70.56766289 -29.41351092 62.98719839 -29.40378223 55.406566 C-29.39923485 51.53921045 -29.40114886 47.67214454 -29.42054367 43.80482864 C-29.44139789 39.61025294 -29.43119871 35.41632066 -29.41801071 31.22171402 C-29.42897996 30.00195966 -29.4399492 28.78220529 -29.45125085 27.52548867 C-29.38761198 19.15417769 -28.11369473 13.91712975 -22.61776352 7.38142776 C-15.46929452 1.39666302 -9.19492509 -0.02203629 0 0 Z M5.06973648 43.13142776 C0.17138171 50.33002345 -0.07850012 56.58694661 -0.07070541 65.01124954 C-0.07367654 66.01372545 -0.07664766 67.01620137 -0.07970881 68.04905534 C-0.08838853 71.41213323 -0.08990345 74.77517549 -0.09139633 78.1382637 C-0.096025 80.54801382 -0.10104972 82.95776321 -0.1064415 85.36751175 C-0.11956234 91.91719702 -0.12604664 98.46687489 -0.13045216 105.01657009 C-0.13321754 109.10842836 -0.13745543 113.20028428 -0.14195633 117.29214096 C-0.1541464 128.62776796 -0.16444637 139.96339308 -0.16783142 151.29902649 C-0.16805099 152.02411919 -0.16827055 152.7492119 -0.16849677 153.49627711 C-0.16871505 154.22307468 -0.16893333 154.94987225 -0.16915822 155.69869399 C-0.16960168 157.1713891 -0.17004825 158.64408422 -0.17049789 160.11677933 C-0.17071932 160.84728226 -0.17094075 161.57778519 -0.17116889 162.33042458 C-0.175116 174.16426502 -0.19256851 185.99804386 -0.21585742 197.83186051 C-0.23959065 209.98986813 -0.25203416 222.14784486 -0.25319934 234.30587602 C-0.25411497 241.12878035 -0.25983902 247.95160438 -0.27801895 254.77448654 C-0.29506176 261.19307917 -0.29665782 267.61156017 -0.28787994 274.03017044 C-0.28710928 276.38395724 -0.29145613 278.73775222 -0.3013382 281.0915184 C-0.31405301 284.30908389 -0.30818301 287.52610946 -0.2977562 290.74367142 C-0.3058126 291.67121853 -0.313869 292.59876564 -0.32216954 293.55442023 C-0.25902787 301.9072476 1.59288408 309.6184141 7.06973648 316.13142776 C12.97009192 320.53877829 17.5253582 322.25515313 24.94459438 322.26564884 C25.65139934 322.26800107 26.35820431 322.2703533 27.0864276 322.27277681 C29.47282148 322.27947395 31.859161 322.27900838 34.24556351 322.27859879 C35.96661853 322.28189696 37.68767278 322.28562243 39.40872604 322.28974026 C44.1523621 322.29977359 48.8959855 322.3034792 53.63963068 322.30612957 C58.75021363 322.31002867 63.86078652 322.31960726 68.97136307 322.32834244 C81.32027503 322.34811776 93.66918783 322.3581743 106.01811168 322.36707023 C111.83038796 322.37145127 117.64266333 322.37681855 123.45493889 322.3820591 C142.77093409 322.39907225 162.08692872 322.41356715 181.40293026 322.42080784 C186.41710981 322.4227178 191.43128937 322.42463812 196.4454689 322.42659378 C197.69175089 322.42707752 198.93803288 322.42756126 200.22208098 322.42805966 C220.41794273 322.43636267 240.61374529 322.4617038 260.80958118 322.49417446 C281.53414341 322.52722414 302.25867554 322.5452547 322.98326427 322.54845208 C334.62344552 322.55061909 346.26354046 322.55939565 357.90369606 322.58491325 C367.81557205 322.60659165 377.72734078 322.61468475 387.63923778 322.60494647 C392.69742414 322.60039352 397.75538906 322.60234582 402.81354523 322.62170792 C407.4443458 322.63928123 412.07476242 322.63838936 416.70556674 322.62281062 C418.38057932 322.62042568 420.05561808 322.62480392 421.73059054 322.63663927 C431.65968973 322.70245096 438.86019068 322.51218219 446.81973648 315.81892776 C453.36268153 308.0037434 454.21930946 301.12023441 454.21017838 291.25160599 C454.2131495 290.24913007 454.21612062 289.24665416 454.21918178 288.21380019 C454.22786149 284.8507223 454.22937641 281.48768004 454.23086929 278.12459183 C454.23549796 275.71484171 454.24052269 273.30509232 454.24591446 270.89534378 C454.2590353 264.34565851 454.2655196 257.79598064 454.26992512 251.24628544 C454.27269051 247.15442717 454.27692839 243.06257125 454.28142929 238.97071457 C454.29361937 227.63508757 454.30391934 216.29946245 454.30730438 204.96382904 C454.30752395 204.23873634 454.30774351 203.51364363 454.30796973 202.76657842 C454.30818801 202.03978085 454.30840629 201.31298328 454.30863118 200.56416154 C454.30907464 199.09146643 454.30952121 197.61877131 454.30997086 196.1460762 C454.31019229 195.41557327 454.31041372 194.68507034 454.31064186 193.93243095 C454.31458896 182.09859051 454.33204147 170.26481167 454.35533038 158.43099502 C454.37906361 146.2729874 454.39150712 134.11501067 454.3926723 121.95697951 C454.39358793 115.13407518 454.39931198 108.31125115 454.41749191 101.48836899 C454.43453472 95.06977636 454.43613079 88.65129536 454.42735291 82.23268509 C454.42658224 79.87889829 454.43092909 77.52510331 454.44081116 75.17133713 C454.45352597 71.95377164 454.44765597 68.73674607 454.43722916 65.51918411 C454.44528556 64.591637 454.45334197 63.66408989 454.4616425 62.7084353 C454.39850083 54.35560793 452.54658888 46.64444143 447.06973648 40.13142776 C441.16938104 35.72407724 436.61411476 34.0077024 429.19487858 33.99720669 C428.48807362 33.99485446 427.78126866 33.99250223 427.05304536 33.99007872 C424.66665148 33.98338158 422.28031196 33.98384715 419.89390945 33.98425674 C418.17285443 33.98095857 416.45180018 33.9772331 414.73074692 33.97311527 C409.98711086 33.96308194 405.24348746 33.95937633 400.49984229 33.95672596 C395.38925933 33.95282686 390.27868644 33.94324827 385.16810989 33.93451309 C372.81919793 33.91473777 360.47028513 33.90468123 348.12136129 33.8957853 C342.309085 33.89140426 336.49680963 33.88603698 330.68453407 33.88079643 C311.36853887 33.86378328 292.05254425 33.84928838 272.7365427 33.84204769 C267.72236315 33.84013773 262.7081836 33.83821741 257.69400406 33.83626175 C256.44772207 33.83577801 255.20144009 33.83529427 253.91739198 33.83479587 C233.72153023 33.82649286 213.52572767 33.80115173 193.32989178 33.76868107 C172.60532955 33.73563139 151.88079742 33.71760083 131.15620869 33.71440345 C119.51602745 33.71223644 107.8759325 33.70345988 96.2357769 33.67794228 C86.32390091 33.65626388 76.41213218 33.64817078 66.50023518 33.65790906 C61.44204882 33.66246201 56.3840839 33.66050971 51.32592773 33.64114761 C46.69512716 33.6235743 42.06471054 33.62446617 37.43390622 33.64004491 C35.75889364 33.64242985 34.08385488 33.63805161 32.40888242 33.62621626 C21.26430806 33.5523482 12.78232605 33.919168 5.06973648 43.13142776 Z " fill="#000000" transform="translate(28.93026351928711,77.86857223510742)"/>
<path d="M0 0 C25.89456772 -0.06766057 51.78906412 -0.12294888 77.6836977 -0.15543652 C89.70640027 -0.17092048 101.72904411 -0.19203918 113.75170898 -0.22631836 C124.22786519 -0.25617393 134.70397887 -0.27556387 145.18017644 -0.28226548 C150.72977821 -0.28618426 156.27925832 -0.29542561 161.82882118 -0.31719017 C167.04818952 -0.33749465 172.26738563 -0.34384606 177.4867897 -0.33932304 C179.40609484 -0.34015096 181.32540551 -0.34615242 183.24467659 -0.35761642 C185.85814088 -0.37246616 188.47094849 -0.36898134 191.08442688 -0.36076355 C191.84998707 -0.36950207 192.61554725 -0.3782406 193.40430623 -0.38724393 C198.50257763 -0.34368833 198.50257763 -0.34368833 200.93222332 1.33504772 C203.65417365 5.57930355 203.14425615 10.16669386 203.1328125 15.0078125 C203.13376923 15.88903778 203.13472595 16.77026306 203.13571167 17.67819214 C203.13639186 19.53920564 203.1345488 21.40022153 203.13037109 23.26123047 C203.12500784 26.12082189 203.13032806 28.98025714 203.13671875 31.83984375 C203.13605819 33.64583368 203.13477749 35.45182352 203.1328125 37.2578125 C203.13483673 38.11819122 203.13686096 38.97856995 203.13894653 39.86502075 C203.11495872 45.88504128 203.11495872 45.88504128 202 47 C200.29696383 47.31349422 198.59271138 47.62152003 196.88354492 47.8996582 C175.52711858 51.40652075 156.27760112 61.58675263 143 79 C129.55486996 98.26466393 124.06009469 120.35866554 128.125 143.5625 C133.02599804 165.21807275 144.91881637 183.71828122 163.6484375 196 C175.48349902 203.06241433 188.25695148 207.6526423 202 209 C204.10869192 211.10869192 203.18861981 215.75674411 203.203125 218.671875 C203.20882507 219.54644348 203.21452515 220.42101196 203.22039795 221.32208252 C203.22986503 223.17825098 203.23638868 225.03443638 203.24023438 226.890625 C203.24991209 229.72426001 203.28090737 232.55716129 203.3125 235.390625 C203.31903261 237.19270402 203.32428207 238.99478824 203.328125 240.796875 C203.3466452 242.06588654 203.3466452 242.06588654 203.36553955 243.36053467 C203.34611841 248.51964943 202.8317226 252.1682774 199 256 C196.43281803 256.09777019 193.89256084 256.12995016 191.32493591 256.12025452 C190.1047139 256.12153615 190.1047139 256.12153615 188.85984093 256.12284368 C186.11283759 256.12450097 183.36589427 256.11897306 180.61889648 256.11352539 C178.65818279 256.11324355 176.697469 256.1134012 174.73675537 256.1139679 C169.39606666 256.11425598 164.05540019 256.10835752 158.71471667 256.10139394 C153.13997684 256.09516218 147.56523655 256.09455674 141.99049377 256.09336853 C131.42593909 256.09025469 120.86139469 256.08204059 110.29684454 256.07201904 C98.2728677 256.06085955 86.24889039 256.05534787 74.22490966 256.05032361 C49.48326608 256.03985801 24.74163661 256.02151188 0 256 C0 240.49 0 224.98 0 209 C8.91 207.02 8.91 207.02 18 205 C40.71612633 195.79075959 58.20256627 180.68250908 68 158 C75.25942599 138.40693229 75.61916526 116.06201551 67.234375 96.7734375 C57.84405968 76.54741627 43.01519741 60.54694732 21.9375 52.5625 C14.64647384 49.91049809 7.78259559 48.66769906 0 47 C0 31.49 0 15.98 0 0 Z " fill="#000000" transform="translate(264,128)"/>
<path d="M0 0 C0.77138587 0.00291284 1.54277174 0.00582568 2.33753294 0.00882679 C3.15101428 0.00797237 3.96449563 0.00711794 4.80262792 0.00623763 C7.54963126 0.00458033 10.29657458 0.01010824 13.04357237 0.01555592 C15.00428606 0.01583776 16.96499985 0.01568011 18.92571348 0.01511341 C24.26640219 0.01482533 29.60706866 0.02072379 34.94775218 0.02768737 C40.52249201 0.03391913 46.0972323 0.03452457 51.67197508 0.03571278 C62.23652976 0.03882662 72.80107416 0.04704072 83.36562431 0.05706227 C95.38960115 0.06822176 107.41357846 0.07373344 119.43755919 0.0787577 C144.17920277 0.0892233 168.92083224 0.10756943 193.66246885 0.12908131 C193.66246885 15.63908131 193.66246885 31.14908131 193.66246885 47.12908131 C187.72246885 48.44908131 181.78246885 49.76908131 175.66246885 51.12908131 C152.94634252 60.33832171 135.45990258 75.44657223 125.66246885 98.12908131 C118.40304286 117.72214902 118.0433036 140.0670658 126.42809385 159.35564381 C136.51778286 181.08806249 152.28598841 196.03846113 174.44371885 204.87517506 C180.73309363 206.74451701 187.22858361 207.84230426 193.66246885 209.12908131 C193.66246885 224.63908131 193.66246885 240.14908131 193.66246885 256.12908131 C167.76790114 256.19674188 141.87340473 256.25203019 115.97877115 256.28451782 C103.95606858 256.30000179 91.93342474 256.32112049 79.91075987 256.35539967 C69.43460366 256.38525524 58.95848998 256.40464518 48.48229241 256.41134679 C42.93269064 256.41526557 37.38321053 256.42450692 31.83364767 256.44627148 C26.61427933 256.46657596 21.39508323 256.47292737 16.17567915 256.46840435 C14.25637401 256.46923227 12.33706334 256.47523373 10.41779226 256.48669773 C7.80432797 256.50154747 5.19152036 256.49806265 2.57804197 256.48984486 C1.81248178 256.49858338 1.0469216 256.50732191 0.25816262 256.51632524 C-4.84010877 256.47276964 -4.84010877 256.47276964 -7.26975447 254.79403359 C-9.9917048 250.54977775 -9.4817873 245.96238745 -9.47034365 241.12126881 C-9.47177874 239.79943089 -9.47177874 239.79943089 -9.47324282 238.45088917 C-9.47392301 236.58987567 -9.47207995 234.72885978 -9.46790224 232.86785084 C-9.46253899 230.00825942 -9.46785921 227.14882417 -9.4742499 224.28923756 C-9.47358934 222.48324763 -9.47230864 220.67725779 -9.47034365 218.87126881 C-9.47236788 218.01089009 -9.47439211 217.15051136 -9.47647768 216.26406056 C-9.45248987 210.24404003 -9.45248987 210.24404003 -8.33753115 209.12908131 C-6.63449498 208.81558709 -4.93024253 208.50756128 -3.22107607 208.22942311 C18.13535027 204.72256056 37.38486773 194.54232868 50.66246885 177.12908131 C64.10759889 157.86441737 69.60237416 135.77041577 65.53746885 112.56658131 C60.63647081 90.91100856 48.74365248 72.41080008 30.01403135 60.12908131 C18.17896983 53.06666698 5.40551737 48.47643901 -8.33753115 47.12908131 C-10.44622307 45.02038939 -9.52615096 40.3723372 -9.54065615 37.45720631 C-9.54635622 36.58263783 -9.5520563 35.70806935 -9.5579291 34.80699879 C-9.56739618 32.95083033 -9.57391983 31.09464493 -9.57776552 29.23845631 C-9.58744324 26.4048213 -9.61843852 23.57192002 -9.65003115 20.73845631 C-9.65656376 18.93637729 -9.66181322 17.13429307 -9.66565615 15.33220631 C-9.67800295 14.48619862 -9.69034975 13.64019093 -9.7030707 12.76854664 C-9.67427867 5.12010774 -8.28255831 0.02372165 0 0 Z " fill="#000000" transform="translate(54.33753114938736,127.8709186911583)"/>
<path d="M0 0 C13.84428036 11.22574047 24.02602087 26.75066859 26.21826172 44.68359375 C27.59462765 62.88361299 24.27584726 80.67148105 12.53076172 95.15625 C0.90655321 108.58396961 -14.86645176 118.48000941 -32.89306641 119.84326172 C-51.21136474 120.80214745 -68.72715535 116.84076765 -82.86669922 104.6003418 C-96.15704974 92.3739778 -105.10171755 76.61345556 -106.05908203 58.32421875 C-106.6368818 39.97858976 -101.90035807 22.77533572 -89.28173828 9.05859375 C-65.84418723 -15.21047117 -27.81952839 -20.55397329 0 0 Z " fill="#000000" transform="translate(295.78173828125,202.31640625)"/>
<path d="M0 0 C0 42.9 0 85.8 0 130 C-15.8136479 130 -30.41444079 123.04534602 -41.91015625 112.21484375 C-54.99019959 98.35244268 -61.85692058 80.77596485 -61.34375 61.703125 C-59.63303425 43.27405074 -52.24281659 26.87399213 -38.14453125 14.4921875 C-26.7508054 5.5599781 -14.53390608 0 0 0 Z " fill="#000000" transform="translate(467,191)"/>
<path d="M0 0 C15.8136479 0 30.41444079 6.95465398 41.91015625 17.78515625 C54.99019959 31.64755732 61.85692058 49.22403515 61.34375 68.296875 C59.63303425 86.72594926 52.24281659 103.12600787 38.14453125 115.5078125 C26.7508054 124.4400219 14.53390608 130 0 130 C0 87.1 0 44.2 0 0 Z " fill="#000000" transform="translate(45,191)"/>
</svg>
