<?xml version="1.0" encoding="UTF-8"?>
<svg version="1.1" xmlns="http://www.w3.org/2000/svg" width="512" height="512">
<path d="M0 0 C0.90361267 0.32255264 1.80722534 0.64510529 2.73822021 0.97743225 C4.69294618 1.67607928 6.64654827 2.37787733 8.59912109 3.08251953 C11.74750845 4.21870063 14.89870749 5.34674523 18.05078125 6.47265625 C21.3976516 7.66816668 24.74435708 8.86411401 28.09020996 10.06246948 C39.38732082 14.10754653 50.7066483 18.08851678 62.02883911 22.06274414 C80.10780967 28.40956316 98.17614213 34.78584512 116.234375 41.19140625 C132.83998253 47.08137584 149.45822447 52.93457909 166.08502197 58.76446533 C169.75220436 60.05073792 173.41889283 61.33840903 177.08544922 62.62646484 C191.49497852 67.68741035 191.49497852 67.68741035 205.92529297 72.68867493 C209.17355095 73.80725059 212.4194645 74.93252689 215.6651001 76.0586853 C217.79363919 76.79370654 219.92570361 77.51773408 222.05810547 78.24145508 C223.29061035 78.66966553 224.52311523 79.09787598 225.79296875 79.5390625 C227.3696936 80.07865601 227.3696936 80.07865601 228.97827148 80.62915039 C231.421875 81.75390625 231.421875 81.75390625 233.421875 84.75390625 C233.05649376 86.63108921 233.05649376 86.63108921 232.421875 88.75390625 C232.32495078 90.40688614 232.27861227 92.06319397 232.26797485 93.71897888 C232.25507416 95.21831467 232.25507416 95.21831467 232.24191284 96.74794006 C232.23765289 97.83844162 232.23339294 98.92894318 232.22900391 100.05249023 C232.22082642 101.20571777 232.21264893 102.35894531 232.20422363 103.54711914 C232.17940208 107.36474081 232.1628651 111.18232548 232.1484375 115 C232.14311382 116.30296587 232.13779015 117.60593174 232.13230515 118.94838142 C232.11069332 124.42237493 232.09195574 129.89636557 232.08068275 135.37039089 C232.06443307 143.20819213 232.03121213 151.04549859 231.97428191 158.88311332 C231.93558262 164.3991501 231.91605045 169.91505449 231.91076219 175.43122345 C231.9071101 178.72413918 231.8926045 182.01640495 231.86265945 185.30920219 C231.83115575 188.9818304 231.83094929 192.65320073 231.83837891 196.32592773 C231.8137709 197.95864372 231.8137709 197.95864372 231.78866577 199.62434387 C231.792077 205.6891653 231.792077 205.6891653 234.81381226 210.81190491 C235.67447296 211.45276535 236.53513367 212.09362579 237.421875 212.75390625 C241.9015555 217.59680409 242.13757963 222.13026372 241.94140625 228.48046875 C241.1484701 233.47656267 239.09447134 237.27250798 235.421875 240.75390625 C232.71484375 241.9921875 232.71484375 241.9921875 230.421875 242.75390625 C230.72480469 243.36492187 231.02773438 243.9759375 231.33984375 244.60546875 C238.42893261 260.09240134 245.52757064 284.20801313 240.73828125 301.17578125 C238.07872542 306.16382788 234.20941464 309.80596963 228.90625 311.609375 C220.9757961 313.43692373 215.49625301 312.19853306 208.609375 308.06640625 C204.23734103 303.44454177 202.18678001 298.96979973 201.921875 292.56640625 C202.43382267 278.12216833 206.43756604 263.58180204 210.421875 249.75390625 C210.79452919 248.44929252 211.1669274 247.14460564 211.5390625 245.83984375 C211.83039063 244.82148438 212.12171875 243.803125 212.421875 242.75390625 C211.95136719 242.40199219 211.48085938 242.05007813 210.99609375 241.6875 C205.98222873 237.71170227 203.05991087 234.17230465 202.109375 227.58984375 C201.80007241 221.96440296 202.98754662 217.27179279 206.421875 212.75390625 C207.42795807 212.10923904 208.43404114 211.46457184 209.47061157 210.80036926 C211.52300517 209.09530236 212.32219071 208.15629964 212.96961594 205.5428524 C213.16154188 202.70874395 213.16365071 199.92875142 213.10302734 197.08862305 C213.1039035 196.01500015 213.10477966 194.94137726 213.10568237 193.83522034 C213.10150591 190.29044562 213.05484693 186.74756868 213.0078125 183.203125 C212.99662068 180.7440545 212.98808043 178.28497062 212.98208618 175.82588196 C212.95918733 169.3564657 212.90025291 162.88785886 212.8338623 156.41876221 C212.77246379 149.81639557 212.74507623 143.21389802 212.71484375 136.61132812 C212.65051244 123.65850902 212.54927333 110.7062507 212.421875 97.75390625 C205.81875958 100.31298167 199.21579118 102.87243618 192.61291504 105.43212891 C190.37645634 106.29907391 188.13996652 107.16593867 185.90344238 108.03271484 C171.56907573 113.58814694 157.24049984 119.15802521 142.921875 124.75390625 C126.9999328 130.97448628 111.06461992 137.15997183 95.12432861 143.33337402 C80.00227001 149.19084587 64.8948607 155.08468601 49.796875 161.00390625 C34.96006093 166.82014211 20.10864142 172.59658201 5.234375 178.31640625 C4.39146912 178.64072632 3.54856323 178.96504639 2.68011475 179.29919434 C0.33007484 180.20301563 -2.02039248 181.10571291 -4.37109375 182.0078125 C-5.0624794 182.27354568 -5.75386505 182.53927887 -6.46620178 182.81306458 C-15.88613683 186.42172916 -22.57709838 186.6962282 -31.95703125 182.921875 C-32.74460815 182.61896042 -33.53218506 182.31604584 -34.34362793 182.00395203 C-36.94852721 180.99761284 -39.54433298 179.96972659 -42.140625 178.94140625 C-44.00856727 178.21445916 -45.87698726 177.4887386 -47.74584961 176.76416016 C-53.6987343 174.44954213 -59.63915691 172.10395816 -65.578125 169.75390625 C-67.49216312 168.99782239 -69.40622529 168.24179943 -71.3203125 167.48583984 C-79.08842357 164.41584783 -86.85411026 161.33980476 -94.61572266 158.25341797 C-110.54408229 151.92435939 -126.52063065 145.72492735 -142.515625 139.56640625 C-143.72896515 139.09921173 -144.9423053 138.63201721 -146.19241333 138.15066528 C-147.39936859 137.68594818 -148.60632385 137.22123108 -149.84985352 136.74243164 C-152.24757012 135.81920311 -154.64527534 134.89594501 -157.04296875 133.97265625 C-158.20927322 133.52357407 -159.3755777 133.07449188 -160.57722473 132.61180115 C-172.5286754 128.00724169 -184.46070194 123.35356575 -196.38671875 118.68359375 C-205.79278576 115.00208599 -215.20979616 111.35045867 -224.63671875 107.72265625 C-227.99740268 106.42726121 -231.35796387 105.13154815 -234.71850586 103.83578491 C-236.88936052 103.0000139 -239.06089391 102.16600338 -241.2331543 101.33389282 C-244.26523568 100.17234142 -247.29490959 99.0046962 -250.32421875 97.8359375 C-251.65905556 97.32752319 -251.65905556 97.32752319 -253.02085876 96.80883789 C-259.06380796 94.46857349 -264.82977397 91.7436633 -270.578125 88.75390625 C-270.69291687 86.35214233 -270.69291687 86.35214233 -270.578125 83.75390625 C-266.33348157 80.12144388 -260.18247937 78.70302536 -254.96484375 76.90234375 C-253.90471069 76.53139084 -252.84457764 76.16043793 -251.75231934 75.77824402 C-248.2584733 74.55681187 -244.76203751 73.34297001 -241.265625 72.12890625 C-238.80942778 71.27139304 -236.3534573 70.41323012 -233.89770508 69.55444336 C-230.12842603 68.23636493 -226.35910109 66.91842678 -222.58891296 65.60295105 C-211.92870458 61.88222199 -201.28422509 58.1182762 -190.64468384 54.33892822 C-172.13803534 47.76613628 -153.61210302 41.24919249 -135.078125 34.75390625 C-117.08866918 28.44941653 -99.10743147 22.12266982 -81.140625 15.75390625 C-79.17082052 15.05597981 -77.20101263 14.358063 -75.23120117 13.66015625 C-67.0620818 10.76515453 -58.89394463 7.86745807 -50.72926331 4.95996094 C-47.52524398 3.81957005 -44.32032281 2.68172975 -41.11520386 1.54443359 C-39.65407518 1.02520625 -38.19338711 0.50473703 -36.73318481 -0.01708984 C-34.76200428 -0.72150371 -32.78939821 -1.42177276 -30.81640625 -2.12109375 C-29.72368408 -2.51039062 -28.63096191 -2.8996875 -27.50512695 -3.30078125 C-17.66430131 -6.47900103 -9.41826633 -3.43080548 0 0 Z " fill="#000000" transform="translate(270.578125,102.24609375)"/>
<path d="M0 0 C6.58018278 1.87858699 12.95967964 4.03319152 19.31640625 6.5625 C20.18929794 6.90583374 21.06218964 7.24916748 21.96153259 7.60290527 C23.8445037 8.34397132 25.72677299 9.08682266 27.60839844 9.83129883 C32.74745062 11.86440981 37.89178351 13.88410034 43.03515625 15.90625 C44.10379913 16.32684692 45.17244202 16.74744385 46.27346802 17.18078613 C56.65322223 21.26381326 67.05210437 25.29680719 77.45452881 29.32165527 C97.74141507 37.17099744 118.00873715 45.06939772 138.25930786 53.01196289 C140.00143541 53.69411363 141.74431947 54.37433595 143.48800659 55.05249023 C147.67478963 56.68265475 151.84456166 58.34194126 155.99267578 60.06835938 C156.79524307 60.39636536 157.59781036 60.72437134 158.42469788 61.06231689 C159.91569404 61.67255801 161.40198246 62.29451317 162.88182068 62.93133545 C171.05296353 66.24201554 177.93517493 65.5745911 185.96875 62.28125 C186.70910492 61.99223816 187.44945984 61.70322632 188.21224976 61.40545654 C190.64732491 60.45107024 193.07334843 59.47558291 195.5 58.5 C197.23785882 57.8145951 198.97631633 57.1307065 200.71533203 56.44824219 C204.34357358 55.02197049 207.96844091 53.58757811 211.59082031 52.14648438 C216.70610544 50.11316711 221.83120239 48.10591887 226.9609375 46.109375 C227.7745726 45.79266342 228.5882077 45.47595184 229.42649841 45.14964294 C231.07722728 44.50716369 232.72797909 43.8647434 234.37875366 43.22238159 C237.76252371 41.90427622 241.14445546 40.58148737 244.526474 39.25889587 C253.06014894 35.92219979 261.59972886 32.60106603 270.14453125 29.29296875 C271.17525253 28.89389816 272.20597382 28.49482758 273.26792908 28.08366394 C277.4440228 26.46696932 281.62018234 24.85044536 285.79660034 23.23458862 C296.70677854 19.01238877 307.6093501 14.77299164 318.484375 10.4609375 C319.38102371 10.10558426 320.27767242 9.75023102 321.20149231 9.3841095 C325.40497765 7.71712117 329.60653299 6.04548009 333.80541992 4.36694336 C335.27520212 3.78232461 336.74500854 3.19776671 338.21484375 2.61328125 C338.88002014 2.34554901 339.54519653 2.07781677 340.23052979 1.80197144 C344.77364439 0 344.77364439 0 347 0 C347.06991084 9.16307615 347.1230178 18.32605866 347.15543652 27.4893446 C347.17100606 31.74551591 347.19208231 36.00150302 347.22631836 40.25756836 C347.2592262 44.3748941 347.27691827 48.49204411 347.28463173 52.60949135 C347.29011947 54.17015659 347.30083328 55.73081364 347.31719017 57.29140282 C347.50912174 76.3853605 343.23295944 90.19782713 331 105 C330.2575 105.99 329.515 106.98 328.75 108 C310.69951249 129.19476598 280.04042415 141.61476496 254 149 C253.06897461 149.26506348 252.13794922 149.53012695 251.17871094 149.80322266 C186.8276746 167.74580573 115.34486762 163.93014218 55 134 C54.3203418 133.66419922 53.64068359 133.32839844 52.94042969 132.98242188 C41.80573891 127.36981352 32.35556701 120.20236824 23 112 C22.18660156 111.30132812 21.37320313 110.60265625 20.53515625 109.8828125 C7.27742067 97.64894165 0.64617876 81.00956213 -0.17266846 63.25643921 C-0.2295689 59.19399699 -0.22592112 55.13669423 -0.1953125 51.07421875 C-0.19157093 49.59064426 -0.18872939 48.10706725 -0.18673706 46.62348938 C-0.17919044 42.76515583 -0.15962197 38.9069788 -0.1373291 35.04870605 C-0.11667448 31.0930391 -0.1076939 27.13734625 -0.09765625 23.18164062 C-0.0763652 15.45435661 -0.04234135 7.72720044 0 0 Z " fill="#000000" transform="translate(78,239)"/>
</svg>
